# xmcd
#
# Track frame offsets:
#	150
#	16083
#	30988
#	47258
#	60336
#	74030
#	87660
#	102578
#	118307
#	130822
#	144578
#	157036
#	172591
#	188884
#	205108
#	221760
#	236957
#	248972
#	266495
#	285272
#	300556
#	316752
#
# Disc length: 4393 seconds
#
# Revision: 1
# Processed by: cddbd v1.5.2PL0 Copyright (c) Steve Scherf et al.
# Submitted via: audiograbber 1.83.01
#
DISCID=37112716
DTITLE=Various Artist - Halland's Country Hits Volume 1
DYEAR=1900
DGENRE=
TTITLE0=Alabama - T.L.C.  A.S.A.P.
TTITLE1=Alabama - We Can't Love Like This Anymore
TTITLE2=John Anderson - I Wish I Could Have Been There
TTITLE3=John Anderson - I've Got It Made
TTITLE4=David Ball - Thinkin' Problem
TTITLE5=David Ball - When The Thought Of You Catches
TTITLE6=John Berry - What's In It For Me
TTITLE7=John Berry - Your Love Amazes Me
TTITLE8=Clint Black - A Good Run Of Bad Luck
TTITLE9=Clint Black - Half The Man
TTITLE10=Clint Black - State Of Mind
TTITLE11=Clint Black - Untanglin' My Mind
TTITLE12=Blackhawk - Every Once In A While
TTITLE13=Suzy Bogguss - Hey Cinderella
TTITLE14=Boy Howdy - She'd Give Anything
TTITLE15=Boy Howdy - They Don't Make 'Em Like That Anymore
TTITLE16=Garth Brooks - Callin' Baton Rouge
TTITLE17=Garth Brooks - Standing Outside The Fire
TTITLE18=Brooks and Dunn - Rock My World (Little Country...)
TTITLE19=Brooks and Dunn - She's Not The Cheatin' Kind
TTITLE20=Brooks and Dunn - That Ain't No Way To Go
TTITLE21=Tracy Byrd - Lifestyles Of The Not So Rich
EXTD=
EXTT0=
EXTT1=
EXTT2=
EXTT3=
EXTT4=
EXTT5=
EXTT6=
EXTT7=
EXTT8=
EXTT9=
EXTT10=
EXTT11=
EXTT12=
EXTT13=
EXTT14=
EXTT15=
EXTT16=
EXTT17=
EXTT18=
EXTT19=
EXTT20=
EXTT21=
PLAYORDER=
